# AST/ASF file generated using VICON BodyLanguage
# -----------------------------------------------
:version 1.10
:name VICON
:units
  mass 1.0
  length 0.45
  angle deg
:documentation
   .ast/.asf automatically generated from VICON data using
   VICON BodyBuilder and BodyLanguage model FoxedUp or BRILLIANT.MOD
:root
   order TX TY TZ RX RY RZ
   axis XYZ
   position 0 0 0  
   orientation 0 0 0 
:bonedata
  begin
     id 1 
     name lhipjoint
     direction 0.710188 -0.616876 0.339259 
     length 2.5669 
     axis 0 0 0  XYZ
  end
  begin
     id 2 
     name lfemur
     direction 0.34202 -0.939693 0  
     length 7.12796  
     axis 0 0 20  XYZ
    dof rx ry rz
    limits (-160.0 20.0)
           (-70.0 70.0)
           (-60.0 70.0)
  end
  begin
     id 3 
     name ltibia
     direction 0.34202 -0.939693 0   
     length 7.58108   
     axis 0 0 20   XYZ
    dof rx
    limits (-10.0 170.0)
  end
  begin
     id 4 
     name lfoot
     direction 0.0669471 -0.183936 0.980656   
     length 2.17365   
     axis -90 7.62852e-016 20   XYZ
    dof rx rz
    limits (-45.0 90.0)
           (-70.0 20.0)
  end
  begin
     id 5 
     name ltoes
     direction 1.53508e-011 -4.21705e-011 1   
     length 1.09427   
     axis -90 7.62852e-016 20   XYZ
    dof rx
    limits (-90.0 20.0)
  end
  begin
     id 6 
     name rhipjoint
     direction -0.700191 -0.625589 0.34405   
     length 2.53115  
     axis 0 0 0  XYZ 
  end
  begin
     id 7 
     name rfemur
     direction -0.34202 -0.939693 0   
     length 7.33006   
     axis 0 0 -20   XYZ
    dof rx ry rz
    limits (-160.0 20.0)
           (-70.0 70.0)
           (-70.0 60.0)
  end
  begin
     id 8 
     name rtibia
     direction -0.34202 -0.939693 0   
     length 7.64926   
     axis 0 0 -20   XYZ
    dof rx
    limits (-10.0 170.0)
 end
 begin
     id 9 
     name rfoot
     direction -0.0688927 -0.189281 0.979503   
     length 2.20493  
     axis -90 -7.62852e-016 -20   XYZ
    dof rx rz
    limits (-45.0 90.0)
           (-20.0 70.0)
  end
  begin
     id 10 
     name rtoes
     direction -1.53567e-011 -4.21933e-011 1   
     length 1.10919   
     axis -90 -7.62852e-016 -20   XYZ
    dof rx
    limits (-90.0 20.0)
  end
  begin
     id 11 
     name lowerback
     direction -0.0167868 0.989873 -0.140959   
     length 2.14596   
     axis 0 0 0   XYZ
    dof rx ry rz
    limits (-20.0 45.0)
           (-30.0 30.0)
           (-30.0 30.0)
  end
  begin
     id 12 
     name upperback
     direction 0.0129109 0.998033 0.0613525   
     length 2.10457   
     axis 0 0 0   XYZ
    dof rx ry rz
    limits (-20.0 45.0)
           (-30.0 30.0)
           (-30.0 30.0)
  end
  begin
     id 13 
     name thorax
     direction 0.0177047 0.991119 0.131797   
     length 2.17652   
     axis 0 0 0   XYZ
    dof rx ry rz
    limits (-20.0 45.0)
           (-30.0 30.0)
           (-30.0 30.0)
  end
  begin
     id 14 
     name lowerneck
     direction -0.0336893 0.997548 0.0613464   
     length 1.8912   
     axis 0 0 0   XYZ
    dof rx ry rz
    limits (-20.0 45.0)
           (-30.0 30.0)
           (-30.0 30.0)
  end
  begin
     id 15 
     name upperneck
     direction 0.0435909 0.997179 -0.0611028   
     length 1.8829   
     axis 0 0 0   XYZ
    dof rx ry rz
    limits (-20.0 45.0)
           (-30.0 30.0)
           (-30.0 30.0)
  end
  begin
     id 16
     name head
     direction 0.0175076 0.999444 -0.0283782  
     length 1.93197  
     axis 0 0 0   XYZ
    dof rx ry rz
    limits (-20.0 45.0)
           (-30.0 30.0)
           (-30.0 30.0)
  end
  begin
     id 17 
     name lclavicle
     direction 0.919164 0.389875 0.0559876  
     length 3.60004  
     axis 0 0 0   XYZ
    dof ry rz
    limits (-20.0 10.0)
           (0.0 20.0)
  end
  begin
     id 18 
     name lhumerus
     direction 1 -4.48958e-011 6.89191e-027   
     length 5.43301   
     axis 180 -30 -90   XYZ
    dof rx ry rz
    limits (-60.0 90.0)
           (-90.0 90.0)
           (-90.0 90.0)
  end
  begin
     id 19
     name lradius
     direction 1 -4.4897e-011 3.24727e-027   
     length 3.15936   
     axis 180 -30 -90   XYZ
    dof rx
    limits (-10.0 170.0)
  end
  begin
     id 20
     name lwrist
     direction 1 -4.4897e-011 9.00228e-027   
     length 1.57968   
     axis -6.29373e-015 90 90   XYZ
    dof ry
    limits (-180.0 0.0)
 end
  begin
     id 21 
     name lhand
     direction 1 -4.48968e-011 1.80042e-026   
     length 0.712827   
     axis -1.14882e-014 90 90   XYZ
    dof rx rz
    limits (-90.0 90.0)
           (-45.0 45.0)
  end
  begin
     id 22 
     name lfingers
     direction 1 -4.49019e-011 3.60267e-026   
     length 0.574699   
     axis -2.29769e-014 90 90   XYZ
    dof rx
    limits (0.0 90.0)
  end
  begin
     id 23
     name lthumb
     direction 0.707107 -6.3498e-011 0.707107   
     length 0.825157   
     axis -90 45 5.37419e-014   XYZ
    dof rx rz
    limits (-45.0 45.0)
           (-45.0 45.0)
  end
  begin
     id 24 
     name rclavicle
     direction -0.890334 0.455305 -0.00132111   
     length 3.51494  
     axis 0 0 0   XYZ 
    dof ry rz
    limits (-10.0 20.0)
           (-20.0 0.0)
  end
  begin
     id 25 
     name rhumerus
     direction -1 -4.48967e-011 5.07175e-028  
     length 5.34194   
     axis 180 30 90   XYZ
    dof rx ry rz
    limits (-90.0 60.0)
           (-90.0 90.0)
           (-90.0 90.0)
  end
  begin
     id 26 
     name rradius
     direction -1 -4.48955e-011 3.30467e-027   
     length 3.19351   
     axis 180 30 90   XYZ
    dof rx
    limits (-10.0 170.0)
  end
  begin
     id 27 
     name rwrist
     direction -1 -4.48968e-011 9.00208e-027   
     length 1.59676   
     axis -6.29373e-015 -90 -90   XYZ
    dof ry
    limits (-180.0 0.0)
  end
  begin
     id 28
     name rhand
     direction -1 -4.49e-011 1.80099e-026   
     length 0.743862   
     axis -1.14882e-014 -90 -90   XYZ
    dof rx rz
    limits (-90.0 90.0)
           (-45.0 45.0)
  end
  begin
     id 29
     name rfingers
     direction -1 -4.49009e-011 3.6023e-026   
     length 0.599721   
     axis -2.29769e-014 -90 -90   XYZ
    dof rx
    limits (0.0 90.0)
  end
  begin
     id 30
     name rthumb
     direction -0.707107 -6.35025e-011 0.707107   
     length 0.861083   
     axis -90 -45 -5.37419e-014   XYZ
    dof rx rz
    limits (-45.0 45.0)
           (-45.0 45.0)
  end
:hierarchy
  begin
    root lhipjoint rhipjoint lowerback
    lhipjoint lfemur
    lfemur ltibia
    ltibia lfoot
    lfoot ltoes
    rhipjoint rfemur
    rfemur rtibia
    rtibia rfoot
    rfoot rtoes
    lowerback upperback
    upperback thorax
    thorax lowerneck lclavicle rclavicle
    lowerneck upperneck
    upperneck head
    lclavicle lhumerus
    lhumerus lradius
    lradius lwrist
    lwrist lhand lthumb
    lhand lfingers
    rclavicle rhumerus
    rhumerus rradius
    rradius rwrist
    rwrist rhand rthumb
    rhand rfingers
  end

#!OML:ASF H:\Martial Arts Walks\Project 1\Capture day 1\Session 1\male.ASF
:FULLY-SPECIFIED
:DEGREES
1626
root -1.81013 14.1189 -15.0623 367.617 -19.3465 -16.3756
lowerback 12.6823 0.770437 9.9684
upperback -1.89029 3.1645 6.70215
thorax -9.10073 1.18406 1.0061
lowerneck -3.1684 4.93752 1.38909
upperneck 5.44536 6.45052 1.22511
head 2.25491 3.27244 0.339731
rclavicle -3.66509e-014 -1.15295e-014
rhumerus -82.1537 18.7993 -94.4849
rradius 110.758
rwrist -77.3846
rhand -4.56914 -21.1158
rfingers 7.12502
rthumb 21.2073 -49.9757
lclavicle -3.66509e-014 -1.15295e-014
lhumerus 6.39585 -22.636 76.9599
lradius 30.1745
lwrist -22.5348
lhand -30.3381 392.39
lfingers 7.12502
lthumb -3.64399 422.339
rfemur 11.292 -9.02909 14.4557
rtibia 36.159
rfoot -24.8396 -23.1805
rtoes -23.5161
lfemur -64.4563 28.3761 -3.71568
ltibia 70.2461
lfoot -5.16875 -0.671838
ltoes 9.68375
1627
root -1.81992 14.111 -15.0502 367.554 -19.3042 -16.3552
lowerback 12.6502 0.76236 9.88765
upperback -1.85458 3.13338 6.72083
thorax -9.04857 1.17655 1.07649
lowerneck -3.17156 4.96127 1.39744
upperneck 5.45664 6.48283 1.20425
head 2.26029 3.2882 0.333138
rclavicle -2.34317e-014 -8.38871e-014
rhumerus -82.1166 18.8278 -94.5135
rradius 110.725
rwrist -77.3172
rhand -5.1194 -21.4148
rfingers 7.12502
rthumb 20.6787 -50.3331
lclavicle -2.34317e-014 -8.38871e-014
lhumerus 6.40579 -22.6875 76.9299
lradius 30.1234
lwrist -22.265
lhand -30.4181 392.36
lfingers 7.12502
lthumb -3.7212 422.308
rfemur 11.4303 -9.11653 14.3901
rtibia 36.1833
rfoot -24.9325 -23.147
rtoes -23.848
lfemur -64.4766 28.4334 -3.72658
ltibia 70.3975
lfoot -5.24774 -0.677074
ltoes 9.79145
1628
root -1.82531 14.1027 -15.0369 367.529 -19.3188 -16.3602
lowerback 12.5705 0.770896 9.89485
upperback -1.81534 3.12882 6.72485
thorax -8.95871 1.17801 1.07799
lowerneck -3.1729 4.9921 1.33383
upperneck 5.49537 6.52129 1.30367
head 2.26746 3.30895 0.376632
rclavicle 9.91439e-015 6.24184e-014
rhumerus -82.1253 18.8403 -94.5453
rradius 110.761
rwrist -77.1515
rhand -4.90855 -21.3788
rfingers 7.12502
rthumb 20.8813 -50.275
lclavicle 9.91439e-015 6.24184e-014
lhumerus 6.44578 -22.6815 76.9143
lradius 30.0499
lwrist -22.1691
lhand -30.5255 392.389
lfingers 7.12502
lthumb -3.82493 422.334
rfemur 11.534 -9.20969 14.297
rtibia 36.1815
rfoot -25.0426 -22.9896
rtoes -24.1885
lfemur -64.5288 28.544 -3.74451
ltibia 70.5595
lfoot -5.31629 -0.669266
ltoes 9.71221
1629
root -1.83189 14.0957 -15.0232 367.534 -19.3421 -16.342
lowerback 12.4811 0.788879 9.8623
upperback -1.81567 3.1328 6.71021
thorax -8.90718 1.18321 1.08023
lowerneck -3.0579 4.99376 1.4065
upperneck 5.45732 6.52541 1.24584
head 2.23872 3.31046 0.342375
rclavicle 2.06985e-014 -1.03368e-014
rhumerus -82.1408 18.8522 -94.604
rradius 110.764
rwrist -77.0427
rhand -4.78995 -21.0741
rfingers 7.12502
rthumb 20.9952 -49.9577
lclavicle 2.06985e-014 -1.03368e-014
lhumerus 6.41892 -22.6779 76.9133
lradius 30.0041
lwrist -22.2554
lhand -30.6779 392.459
lfingers 7.12502
lthumb -3.97207 422.402
rfemur 11.608 -9.34663 14.1657
rtibia 36.1625
rfoot -25.2498 -22.729
rtoes -24.7875
lfemur -64.6116 28.6713 -3.80857
ltibia 70.7093
lfoot -5.39615 -0.653071
ltoes 9.67726
1630
root -1.83946 14.0896 -15.0104 367.497 -19.4037 -16.3813
lowerback 12.4806 0.812781 9.85284
upperback -1.80317 3.16212 6.71806
thorax -8.89249 1.19873 1.08799
lowerneck -2.94601 4.99942 1.42846
upperneck 5.43509 6.53434 1.24201
head 2.21203 3.31489 0.333904
rclavicle -3.05134e-014 -6.16232e-014
rhumerus -82.1382 18.867 -94.628
rradius 110.773
rwrist -76.907
rhand -5.63228 -21.609
rfingers 7.12502
rthumb 20.1858 -50.5802
lclavicle -3.05134e-014 -6.16232e-014
lhumerus 6.40988 -22.5671 76.9583
lradius 29.8988
lwrist -22.5687
lhand -30.6834 392.499
lfingers 7.12502
lthumb -3.97736 422.442
rfemur 11.7314 -9.43634 14.09
rtibia 36.1525
rfoot -25.2926 -22.6274
rtoes -24.9772
lfemur -64.6148 28.8714 -3.78259
ltibia 70.8668
lfoot -5.47799 -0.685782
ltoes 9.62538
1631
root -1.84527 14.0806 -14.9978 367.521 -19.3964 -16.4734
lowerback 12.428 0.814951 9.94579
upperback -1.80306 3.17121 6.72204
thorax -8.85754 1.19962 1.04037
lowerneck -2.9409 5.00762 1.42844
upperneck 5.50826 6.54109 1.30271
head 2.23305 3.32024 0.354377
rclavicle -2.04003e-014 -3.57812e-015
rhumerus -82.1236 18.8917 -94.6373
rradius 110.772
rwrist -76.8794
rhand -5.79983 -21.2893
rfingers 7.12502
rthumb 20.0248 -50.2775
lclavicle -2.04003e-014 -3.57812e-015
lhumerus 6.42752 -22.4103 76.9946
lradius 29.7639
lwrist -22.9755
lhand -30.6722 392.588
lfingers 7.12502
lthumb -3.9666 422.531
rfemur 11.8056 -9.60964 14.0685
rtibia 36.1508
rfoot -25.3052 -22.508
rtoes -25.1038
lfemur -64.7214 29.0112 -3.73368
ltibia 71.0324
lfoot -5.55053 -0.725134
ltoes 9.50602
1632
root -1.85063 14.0716 -14.9857 367.596 -19.3941 -16.556
lowerback 12.3356 0.825697 10.0232
upperback -1.83234 3.18701 6.72964
thorax -8.83268 1.20388 1.00508
lowerneck -2.8668 4.99634 1.39727
upperneck 5.54489 6.52469 1.37047
head 2.22812 3.31327 0.378617
rclavicle -3.09359e-014 -9.54166e-015
rhumerus -82.1422 18.9084 -94.6136
rradius 110.786
rwrist -76.9052
rhand -6.58915 -22.9492
rfingers 7.12502
rthumb 19.2659 -52.0149
lclavicle -3.09359e-014 -9.54166e-015
lhumerus 6.44027 -22.2773 77.0494
lradius 29.6003
lwrist -23.2518
lhand -30.688 392.731
lfingers 7.12502
lthumb -3.98182 422.673
rfemur 11.8146 -9.75678 14.0532
rtibia 36.166
rfoot -25.409 -22.3257
rtoes -25.0825
lfemur -64.8883 29.1536 -3.71532
ltibia 71.2136
lfoot -5.6296 -0.753932
ltoes 9.4884
1633
root -1.85677 14.0637 -14.9713 367.617 -19.3644 -16.6248
lowerback 12.2655 0.819979 10.1048
upperback -1.85132 3.18311 6.73066
thorax -8.80972 1.19837 0.963661
lowerneck -2.84518 4.99456 1.31804
upperneck 5.65886 6.51774 1.50266
head 2.25425 3.31231 0.434424
rclavicle -4.76835e-014 1.04958e-013
rhumerus -82.1638 18.9346 -94.5803
rradius 110.767
rwrist -77.0107
rhand -5.98532 -21.7304
rfingers 7.12502
rthumb 19.8465 -50.7371
lclavicle -4.76835e-014 1.04958e-013
lhumerus 6.4024 -22.0539 77.157
lradius 29.4507
lwrist -23.4495
lhand -30.7029 392.547
lfingers 7.12502
lthumb -3.99626 422.489
rfemur 11.8812 -9.91704 14.0279
rtibia 36.1897
rfoot -25.4469 -22.2424
rtoes -25.1137
lfemur -64.987 29.26 -3.67657
ltibia 71.3994
lfoot -5.74119 -0.790268
ltoes 9.41121
1634
root -1.8601 14.0538 -14.9577 367.668 -19.3468 -16.7375
lowerback 12.2184 0.881885 10.2475
upperback -1.89522 3.28432 6.71885
thorax -8.81842 1.23831 0.855036
lowerneck -2.81057 4.92958 1.43481
upperneck 5.71086 6.42758 1.45658
head 2.27105 3.26883 0.398277
rclavicle -1.97791e-014 -7.07673e-014
rhumerus -82.1913 18.7383 -94.4643
rradius 110.76
rwrist -77.1608
rhand -6.17807 -22.2311
rfingers 7.12502
rthumb 19.6612 -51.2568
lclavicle -1.97791e-014 -7.07673e-014
lhumerus 6.41808 -22.1553 77.2918
lradius 29.3582
lwrist -23.4554
lhand -30.5499 393.047
lfingers 7.12502
lthumb -3.84852 422.992
rfemur 11.9025 -10.0415 14.0531
rtibia 36.2263
rfoot -25.4907 -22.1512
rtoes -25.087
lfemur -65.1339 29.3873 -3.62093
ltibia 71.5986
lfoot -5.83098 -0.849126
ltoes 9.41776
1635
root -1.86579 14.0439 -14.9458 367.706 -19.3267 -16.8546
lowerback 12.1893 0.82657 10.3852
upperback -1.92152 3.23072 6.73185
thorax -8.82875 1.20469 0.805178
lowerneck -2.79803 4.95601 1.32732
upperneck 5.86915 6.46191 1.53732
head 2.31442 3.28674 0.445183
rclavicle 1.51076e-014 3.97569e-016
rhumerus -82.271 18.8837 -94.4988
rradius 110.773
rwrist -77.3151
rhand -6.43504 -22.4653
rfingers 7.12502
rthumb 19.4141 -51.5161
lclavicle 1.51076e-014 3.97569e-016
lhumerus 6.35989 -21.8169 77.3076
lradius 29.128
lwrist -23.7653
lhand -30.652 391.959
lfingers 7.12502
lthumb -3.9471 421.902
rfemur 11.9492 -10.1152 14.1277
rtibia 36.2541
rfoot -25.5118 -22.1602
rtoes -25.0823
lfemur -65.2094 29.4304 -3.47104
ltibia 71.793
lfoot -5.92009 -0.833441
ltoes 9.41048
1636
root -1.8702 14.0337 -14.9327 367.763 -19.264 -16.8979
lowerback 12.1042 0.811183 10.4309
upperback -1.96146 3.20938 6.74307
thorax -8.82371 1.19191 0.798488
lowerneck -2.83923 4.95627 1.33469
upperneck 6.01136 6.46055 1.51755
head 2.37007 3.28662 0.442115
rclavicle -1.39149e-014 -1.59028e-015
rhumerus -82.3236 18.9188 -94.45
rradius 110.77
rwrist -77.3897
rhand -7.29465 -23.7147
rfingers 7.12502
rthumb 18.5874 -52.8467
lclavicle -1.39149e-014 -1.59028e-015
lhumerus 6.33305 -21.7447 77.3558
lradius 29.0132
lwrist -23.7919
lhand -30.6866 391.859
lfingers 7.12502
lthumb -3.98051 421.802
rfemur 11.9525 -10.2193 14.1351
rtibia 36.3084
rfoot -25.5383 -22.1809
rtoes -25.1433
lfemur -65.383 29.4553 -3.473
ltibia 71.9878
lfoot -6.01247 -0.841046
ltoes 9.2904
1637
root -1.87572 14.0217 -14.9217 367.728 -19.1735 -16.8916
lowerback 12.1093 0.784832 10.4174
upperback -1.98651 3.17704 6.74922
thorax -8.85755 1.17556 0.819113
lowerneck -2.87482 4.96133 1.29471
upperneck 6.12942 6.46582 1.54243
head 2.41349 3.28983 0.460349
rclavicle -6.78353e-015 -1.59028e-014
rhumerus -82.3863 18.9349 -94.4068
rradius 110.774
rwrist -77.4746
rhand -6.63988 -22.4663
rfingers 7.12502
rthumb 19.2171 -51.5368
lclavicle -6.78353e-015 -1.59028e-014
lhumerus 6.30883 -21.6791 77.408
lradius 28.9406
lwrist -23.8473
lhand -30.6315 391.753
lfingers 7.12502
lthumb -3.92731 421.697
rfemur 12.0461 -10.2855 14.1207
rtibia 36.3692
rfoot -25.6334 -22.212
rtoes -25.1953
lfemur -65.4716 29.4203 -3.47674
ltibia 72.1742
lfoot -6.10819 -0.838567
ltoes 9.23303
1638
root -1.88114 14.0098 -14.9136 367.771 -19.0844 -16.9422
lowerback 12.0593 0.777539 10.469
upperback -1.99901 3.16874 6.75004
thorax -8.84073 1.16941 0.79438
lowerneck -2.92635 4.9483 1.28678
upperneck 6.16715 6.44809 1.53281
head 2.43557 3.28091 0.460559
rclavicle -6.93262e-015 -1.55052e-014
rhumerus -82.4022 18.897 -94.3603
rradius 110.796
rwrist -77.498
rhand -4.09583 -20.7119
rfingers 7.12502
rthumb 21.6619 -49.5201
lclavicle -6.93262e-015 -1.55052e-014
lhumerus 6.37116 -21.6757 77.4013
lradius 28.882
lwrist -24.0001
lhand -30.5519 391.747
lfingers 7.12502
lthumb -3.85045 421.692
rfemur 12.0291 -10.3154 14.2081
rtibia 36.4659
rfoot -25.6908 -22.3354
rtoes -25.1957
lfemur -65.6515 29.4 -3.45339
ltibia 72.3533
lfoot -6.17439 -0.856639
ltoes 9.13236
1639
root -1.88682 13.998 -14.9051 367.793 -19.034 -16.9456
lowerback 12.0289 0.792657 10.4546
upperback -2.02031 3.18476 6.75019
thorax -8.84634 1.1774 0.800205
lowerneck -2.92991 4.9328 1.35346
upperneck 6.17385 6.43194 1.40202
head 2.44553 3.27068 0.408293
rclavicle 4.20181e-014 3.10104e-014
rhumerus -82.4486 18.8521 -94.3219
rradius 110.804
rwrist -77.3917
rhand -6.50462 -22.4971
rfingers 7.12502
rthumb 19.3472 -51.5546
lclavicle 4.20181e-014 3.10104e-014
lhumerus 6.40571 -21.6444 77.4493
lradius 28.8261
lwrist -24.2686
lhand -30.4815 391.902
lfingers 7.12502
lthumb -3.78246 421.848
rfemur 12.0119 -10.3264 14.2259
rtibia 36.5789
rfoot -25.7544 -22.4293
rtoes -25.2906
lfemur -65.7906 29.3914 -3.4575
ltibia 72.5377
lfoot -6.25041 -0.83799
ltoes 9.16352
1640
root -1.89167 13.9835 -14.8967 367.843 -18.9607 -16.9835
lowerback 11.9752 0.790751 10.4932
upperback -2.05102 3.18413 6.76047
thorax -8.84839 1.17481 0.791836
lowerneck -2.93922 4.95313 1.28148
upperneck 6.20233 6.46008 1.4423
head 2.45267 3.28441 0.434594
rclavicle -9.6659e-015 7.15625e-015
rhumerus -82.4986 18.8295 -94.3145
rradius 110.795
rwrist -77.2762
rhand -6.09126 -21.7771
rfingers 7.12502
rthumb 19.7446 -50.7943
lclavicle -9.6659e-015 7.15625e-015
lhumerus 6.4354 -21.6429 77.4738
lradius 28.7531
lwrist -24.4406
lhand -30.5588 392.07
lfingers 7.12502
lthumb -3.85708 422.015
rfemur 11.9836 -10.3517 14.2829
rtibia 36.6906
rfoot -25.839 -22.5107
rtoes -25.3372
lfemur -65.9823 29.3757 -3.44611
ltibia 72.7252
lfoot -6.31317 -0.841815
ltoes 8.97084
